<mxfile host="app.diagrams.net" agent="Mozilla/5.0 (X11; Linux x86_64) AppleWebKit/537.36 (KHTML, like Gecko) Chrome/128.0.0.0 Safari/537.36" version="24.7.14">
  <diagram name="Page-1" id="cejcpmD-2L77CZ7J_dgc">
    <mxGraphModel dx="2381" dy="969" grid="1" gridSize="10" guides="1" tooltips="1" connect="1" arrows="1" fold="1" page="1" pageScale="1" pageWidth="850" pageHeight="1100" math="0" shadow="0">
      <root>
        <mxCell id="0" />
        <mxCell id="1" parent="0" />
        <mxCell id="49P6IO0RWQ1bCHdIIngb-3" value="Employees" style="swimlane;childLayout=stackLayout;horizontal=1;startSize=50;horizontalStack=0;rounded=1;fontSize=14;fontStyle=0;strokeWidth=2;resizeParent=0;resizeLast=1;shadow=0;dashed=0;align=center;arcSize=4;whiteSpace=wrap;html=1;" parent="1" vertex="1">
          <mxGeometry x="580" y="450" width="260" height="190" as="geometry" />
        </mxCell>
        <mxCell id="49P6IO0RWQ1bCHdIIngb-4" value="&lt;div&gt;EmployeeID&lt;span style=&quot;background-color: initial;&quot;&gt;(PK, INT, AUTO_INCREMENTED)&lt;/span&gt;&lt;/div&gt;&lt;div&gt;Name(VARCHAR, NOT NULL)&lt;/div&gt;Surname(VARCHAR, NOT NULL)&lt;div&gt;Birth date(DATE, NOT NULL)&lt;/div&gt;&lt;div&gt;Sex(VARCHAR, NOT NULL)&lt;/div&gt;&lt;div&gt;Salary(FLOAT, NOT NULL)&lt;/div&gt;&lt;div&gt;UserId&lt;span style=&quot;background-color: initial;&quot;&gt;(FK, INT, NOT NULL)&lt;/span&gt;&lt;/div&gt;&lt;div&gt;&lt;br&gt;&lt;/div&gt;" style="align=left;strokeColor=none;fillColor=none;spacingLeft=4;fontSize=12;verticalAlign=top;resizable=0;rotatable=0;part=1;html=1;" parent="49P6IO0RWQ1bCHdIIngb-3" vertex="1">
          <mxGeometry y="50" width="260" height="140" as="geometry" />
        </mxCell>
        <mxCell id="49P6IO0RWQ1bCHdIIngb-5" value="Animal" style="swimlane;childLayout=stackLayout;horizontal=1;startSize=50;horizontalStack=0;rounded=1;fontSize=14;fontStyle=0;strokeWidth=2;resizeParent=0;resizeLast=1;shadow=0;dashed=0;align=center;arcSize=4;whiteSpace=wrap;html=1;" parent="1" vertex="1">
          <mxGeometry x="-290" y="590" width="240" height="170" as="geometry" />
        </mxCell>
        <mxCell id="49P6IO0RWQ1bCHdIIngb-6" value="&lt;div&gt;AnimalID&lt;span style=&quot;background-color: initial;&quot;&gt;(PK, INT, AUTO_INCREMENTED)&lt;/span&gt;&lt;/div&gt;Name(VARCHAR, NOT NULL)&lt;br&gt;FamilyID(FK, INT, NOT NULL)&lt;div&gt;AviaryID&lt;span style=&quot;background-color: initial;&quot;&gt;(FK, INT, NOT NULL)&lt;/span&gt;&lt;/div&gt;&lt;div&gt;PhotoPath(VARCHAR, NOT NULL)&lt;/div&gt;" style="align=left;strokeColor=none;fillColor=none;spacingLeft=4;fontSize=12;verticalAlign=top;resizable=0;rotatable=0;part=1;html=1;" parent="49P6IO0RWQ1bCHdIIngb-5" vertex="1">
          <mxGeometry y="50" width="240" height="120" as="geometry" />
        </mxCell>
        <mxCell id="49P6IO0RWQ1bCHdIIngb-7" value="Aviary" style="swimlane;childLayout=stackLayout;horizontal=1;startSize=50;horizontalStack=0;rounded=1;fontSize=14;fontStyle=0;strokeWidth=2;resizeParent=0;resizeLast=1;shadow=0;dashed=0;align=center;arcSize=4;whiteSpace=wrap;html=1;" parent="1" vertex="1">
          <mxGeometry x="50" y="450" width="240" height="120" as="geometry" />
        </mxCell>
        <mxCell id="49P6IO0RWQ1bCHdIIngb-8" value="&lt;div&gt;AviaryID&lt;span style=&quot;background-color: initial;&quot;&gt;(PK, INT, AUTO_INCREMENTED)&lt;/span&gt;&lt;/div&gt;&lt;div&gt;Number(INT, UNIQUE, NOT NULL)&lt;/div&gt;isPond(BOOLEAN, NOT NULL)&lt;br&gt;SquareMeters(FLOAT, NOT NULL)" style="align=left;strokeColor=none;fillColor=none;spacingLeft=4;fontSize=12;verticalAlign=top;resizable=0;rotatable=0;part=1;html=1;" parent="49P6IO0RWQ1bCHdIIngb-7" vertex="1">
          <mxGeometry y="50" width="240" height="70" as="geometry" />
        </mxCell>
        <mxCell id="49P6IO0RWQ1bCHdIIngb-9" value="County" style="swimlane;childLayout=stackLayout;horizontal=1;startSize=50;horizontalStack=0;rounded=1;fontSize=14;fontStyle=0;strokeWidth=2;resizeParent=0;resizeLast=1;shadow=0;dashed=0;align=center;arcSize=4;whiteSpace=wrap;html=1;" parent="1" vertex="1">
          <mxGeometry x="640" y="760" width="270" height="120" as="geometry" />
        </mxCell>
        <mxCell id="49P6IO0RWQ1bCHdIIngb-10" value="CountryID(PK, INT, AUTO_INCREMENTED)&lt;br&gt;&lt;div&gt;CountryName(VARCHAR, NOT NULL, UNIQUE)&lt;/div&gt;" style="align=left;strokeColor=none;fillColor=none;spacingLeft=4;fontSize=12;verticalAlign=top;resizable=0;rotatable=0;part=1;html=1;" parent="49P6IO0RWQ1bCHdIIngb-9" vertex="1">
          <mxGeometry y="50" width="270" height="70" as="geometry" />
        </mxCell>
        <mxCell id="49P6IO0RWQ1bCHdIIngb-11" value="Feed" style="swimlane;childLayout=stackLayout;horizontal=1;startSize=50;horizontalStack=0;rounded=1;fontSize=14;fontStyle=0;strokeWidth=2;resizeParent=0;resizeLast=1;shadow=0;dashed=0;align=center;arcSize=4;whiteSpace=wrap;html=1;" parent="1" vertex="1">
          <mxGeometry x="-820" y="550" width="230" height="120" as="geometry" />
        </mxCell>
        <mxCell id="49P6IO0RWQ1bCHdIIngb-12" value="&lt;div&gt;FeedID&lt;span style=&quot;background-color: initial;&quot;&gt;(PK, INT, AUTO_INCREMENTED)&lt;/span&gt;&lt;br&gt;&lt;/div&gt;Type(VARCHAR, NOT NULL, UNIQUE)&lt;br&gt;calorific_value(FLOAT, NOT NULL)&lt;br&gt;&lt;div&gt;Amount(FLOAT, NOT NULL)&lt;/div&gt;&lt;div&gt;&lt;br&gt;&lt;/div&gt;" style="align=left;strokeColor=none;fillColor=none;spacingLeft=4;fontSize=12;verticalAlign=top;resizable=0;rotatable=0;part=1;html=1;" parent="49P6IO0RWQ1bCHdIIngb-11" vertex="1">
          <mxGeometry y="50" width="230" height="70" as="geometry" />
        </mxCell>
        <mxCell id="49P6IO0RWQ1bCHdIIngb-13" value="Family" style="swimlane;childLayout=stackLayout;horizontal=1;startSize=50;horizontalStack=0;rounded=1;fontSize=14;fontStyle=0;strokeWidth=2;resizeParent=0;resizeLast=1;shadow=0;dashed=0;align=center;arcSize=4;whiteSpace=wrap;html=1;" parent="1" vertex="1">
          <mxGeometry x="20" y="680" width="240" height="120" as="geometry" />
        </mxCell>
        <mxCell id="49P6IO0RWQ1bCHdIIngb-14" value="&lt;div&gt;&lt;span style=&quot;background-color: initial;&quot;&gt;FamilyID&lt;/span&gt;&lt;span style=&quot;background-color: initial;&quot;&gt;(PK, INT, AUTO_INCREMENTED)&lt;/span&gt;&lt;/div&gt;&lt;div&gt;&lt;span style=&quot;background-color: initial;&quot;&gt;FamilyName(VARCHAR, NOT NULL)&lt;/span&gt;&lt;br&gt;&lt;/div&gt;&lt;div&gt;&lt;br&gt;&lt;/div&gt;" style="align=left;strokeColor=none;fillColor=none;spacingLeft=4;fontSize=12;verticalAlign=top;resizable=0;rotatable=0;part=1;html=1;" parent="49P6IO0RWQ1bCHdIIngb-13" vertex="1">
          <mxGeometry y="50" width="240" height="70" as="geometry" />
        </mxCell>
        <mxCell id="49P6IO0RWQ1bCHdIIngb-19" value="JobTitle" style="swimlane;childLayout=stackLayout;horizontal=1;startSize=50;horizontalStack=0;rounded=1;fontSize=14;fontStyle=0;strokeWidth=2;resizeParent=0;resizeLast=1;shadow=0;dashed=0;align=center;arcSize=4;whiteSpace=wrap;html=1;" parent="1" vertex="1">
          <mxGeometry x="1180" y="615" width="250" height="120" as="geometry" />
        </mxCell>
        <mxCell id="49P6IO0RWQ1bCHdIIngb-20" value="&lt;div&gt;JobTitleID&lt;span style=&quot;background-color: initial;&quot;&gt;(PK, INT, AUTO_INCREMENTED)&lt;/span&gt;&lt;br&gt;&lt;/div&gt;Title(VARCHAR, NOT NULL)&lt;div&gt;Department&lt;span style=&quot;background-color: initial;&quot;&gt;(VARCHAR, NOT NULL)&lt;/span&gt;&lt;br&gt;&lt;/div&gt;" style="align=left;strokeColor=none;fillColor=none;spacingLeft=4;fontSize=12;verticalAlign=top;resizable=0;rotatable=0;part=1;html=1;" parent="49P6IO0RWQ1bCHdIIngb-19" vertex="1">
          <mxGeometry y="50" width="250" height="70" as="geometry" />
        </mxCell>
        <mxCell id="49P6IO0RWQ1bCHdIIngb-21" value="Service" style="swimlane;childLayout=stackLayout;horizontal=1;startSize=50;horizontalStack=0;rounded=1;fontSize=14;fontStyle=0;strokeWidth=2;resizeParent=0;resizeLast=1;shadow=0;dashed=0;align=center;arcSize=4;whiteSpace=wrap;html=1;" parent="1" vertex="1">
          <mxGeometry x="185" y="150" width="240" height="120" as="geometry" />
        </mxCell>
        <mxCell id="49P6IO0RWQ1bCHdIIngb-22" value="&lt;div&gt;&lt;div&gt;ServiceID&lt;span style=&quot;background-color: initial;&quot;&gt;(PK, INT, AUTO_INCREMENTED)&lt;/span&gt;&lt;/div&gt;&lt;/div&gt;&lt;div&gt;&lt;span style=&quot;background-color: initial;&quot;&gt;Title(VARCHAR, NOT NULL)&lt;/span&gt;&lt;br&gt;&lt;/div&gt;Price(FLOAT, NOT NNUL)&lt;br&gt;&lt;div&gt;&lt;span style=&quot;background-color: initial;&quot;&gt;amount(INT, NOT NULL)&lt;/span&gt;&lt;br&gt;&lt;/div&gt;" style="align=left;strokeColor=none;fillColor=none;spacingLeft=4;fontSize=12;verticalAlign=top;resizable=0;rotatable=0;part=1;html=1;" parent="49P6IO0RWQ1bCHdIIngb-21" vertex="1">
          <mxGeometry y="50" width="240" height="70" as="geometry" />
        </mxCell>
        <mxCell id="49P6IO0RWQ1bCHdIIngb-23" value="BasketBy" style="swimlane;childLayout=stackLayout;horizontal=1;startSize=50;horizontalStack=0;rounded=1;fontSize=14;fontStyle=0;strokeWidth=2;resizeParent=0;resizeLast=1;shadow=0;dashed=0;align=center;arcSize=4;whiteSpace=wrap;html=1;" parent="1" vertex="1">
          <mxGeometry x="530" y="80" width="240" height="140" as="geometry" />
        </mxCell>
        <mxCell id="49P6IO0RWQ1bCHdIIngb-24" value="&lt;div&gt;BasketID&lt;span style=&quot;background-color: initial;&quot;&gt;(PK, INT, AUTO_INCREMENTED)&lt;/span&gt;&lt;/div&gt;Userid(FK, INT, NOT NULL)&lt;br&gt;&lt;div&gt;&lt;div&gt;ServiceID&lt;span style=&quot;background-color: initial;&quot;&gt;(FK, INT, NOT NULL)&lt;/span&gt;&lt;/div&gt;&lt;div&gt;&lt;/div&gt;&lt;div&gt;Serviceamount(INT, NOT NULL)&lt;/div&gt;&lt;div&gt;Date(DATETIME, NOT NULL)&lt;/div&gt;&lt;/div&gt;" style="align=left;strokeColor=none;fillColor=none;spacingLeft=4;fontSize=12;verticalAlign=top;resizable=0;rotatable=0;part=1;html=1;" parent="49P6IO0RWQ1bCHdIIngb-23" vertex="1">
          <mxGeometry y="50" width="240" height="90" as="geometry" />
        </mxCell>
        <mxCell id="49P6IO0RWQ1bCHdIIngb-35" value="" style="edgeStyle=entityRelationEdgeStyle;fontSize=12;html=1;endArrow=ERoneToMany;rounded=0;exitX=-0.016;exitY=0.368;exitDx=0;exitDy=0;exitPerimeter=0;entryX=1.018;entryY=0.904;entryDx=0;entryDy=0;entryPerimeter=0;" parent="1" source="49P6IO0RWQ1bCHdIIngb-13" target="49P6IO0RWQ1bCHdIIngb-6" edge="1">
          <mxGeometry width="100" height="100" relative="1" as="geometry">
            <mxPoint x="130" y="1020" as="sourcePoint" />
            <mxPoint x="230" y="920" as="targetPoint" />
          </mxGeometry>
        </mxCell>
        <mxCell id="vKVaL2DnMV1nz-EGHIRk-3" value="users" style="swimlane;childLayout=stackLayout;horizontal=1;startSize=50;horizontalStack=0;rounded=1;fontSize=14;fontStyle=0;strokeWidth=2;resizeParent=0;resizeLast=1;shadow=0;dashed=0;align=center;arcSize=4;whiteSpace=wrap;html=1;" parent="1" vertex="1">
          <mxGeometry x="920" y="240" width="260" height="200" as="geometry" />
        </mxCell>
        <mxCell id="vKVaL2DnMV1nz-EGHIRk-4" value="UserId(PK, INT, AUTO_INCREMENTED)&lt;br&gt;Nikname(VARCHAR, UNIQUE,NOT NULL)&lt;div&gt;email(VARCHAR, UNIQUE, NOT NULL)&lt;br&gt;Role(VARCHAR, NOT NULL)&lt;/div&gt;" style="align=left;strokeColor=none;fillColor=none;spacingLeft=4;fontSize=12;verticalAlign=top;resizable=0;rotatable=0;part=1;html=1;" parent="vKVaL2DnMV1nz-EGHIRk-3" vertex="1">
          <mxGeometry y="50" width="260" height="150" as="geometry" />
        </mxCell>
        <mxCell id="KrvEKSWYPK_Qh1LfVEug-5" value="passwd_hash" style="swimlane;childLayout=stackLayout;horizontal=1;startSize=50;horizontalStack=0;rounded=1;fontSize=14;fontStyle=0;strokeWidth=2;resizeParent=0;resizeLast=1;shadow=0;dashed=0;align=center;arcSize=4;whiteSpace=wrap;html=1;" parent="1" vertex="1">
          <mxGeometry x="1260" y="390" width="230" height="120" as="geometry" />
        </mxCell>
        <mxCell id="KrvEKSWYPK_Qh1LfVEug-6" value="&lt;div&gt;HashID&lt;span style=&quot;background-color: initial;&quot;&gt;(PK, INT, AUTO_INCREMENTED)&lt;/span&gt;&lt;br&gt;&lt;/div&gt;Hash(VARCHAR, UNIQUE, NOT NULL)&amp;nbsp;&lt;br&gt;Userid(FK, INT, NOT NULL)&lt;div&gt;&lt;br&gt;&lt;/div&gt;" style="align=left;strokeColor=none;fillColor=none;spacingLeft=4;fontSize=12;verticalAlign=top;resizable=0;rotatable=0;part=1;html=1;" parent="KrvEKSWYPK_Qh1LfVEug-5" vertex="1">
          <mxGeometry y="50" width="230" height="70" as="geometry" />
        </mxCell>
        <mxCell id="KrvEKSWYPK_Qh1LfVEug-14" value="" style="edgeStyle=entityRelationEdgeStyle;fontSize=12;html=1;endArrow=ERmandOne;startArrow=ERmandOne;rounded=0;entryX=0;entryY=0;entryDx=0;entryDy=0;exitX=0.985;exitY=0.393;exitDx=0;exitDy=0;exitPerimeter=0;" parent="1" source="vKVaL2DnMV1nz-EGHIRk-4" target="KrvEKSWYPK_Qh1LfVEug-6" edge="1">
          <mxGeometry width="100" height="100" relative="1" as="geometry">
            <mxPoint x="940" y="449.4000000000001" as="sourcePoint" />
            <mxPoint x="1088.56" y="447.5" as="targetPoint" />
          </mxGeometry>
        </mxCell>
        <mxCell id="KrvEKSWYPK_Qh1LfVEug-19" value="" style="edgeStyle=entityRelationEdgeStyle;fontSize=12;html=1;endArrow=ERzeroToOne;startArrow=ERmandOne;rounded=0;entryX=1;entryY=0.124;entryDx=0;entryDy=0;exitX=-0.019;exitY=0.557;exitDx=0;exitDy=0;exitPerimeter=0;entryPerimeter=0;" parent="1" source="vKVaL2DnMV1nz-EGHIRk-4" target="49P6IO0RWQ1bCHdIIngb-3" edge="1">
          <mxGeometry width="100" height="100" relative="1" as="geometry">
            <mxPoint x="770" y="700" as="sourcePoint" />
            <mxPoint x="870" y="600" as="targetPoint" />
            <Array as="points">
              <mxPoint x="780" y="760" />
              <mxPoint x="760" y="630" />
            </Array>
          </mxGeometry>
        </mxCell>
        <mxCell id="KrvEKSWYPK_Qh1LfVEug-20" value="Phone" style="swimlane;childLayout=stackLayout;horizontal=1;startSize=50;horizontalStack=0;rounded=1;fontSize=14;fontStyle=0;strokeWidth=2;resizeParent=0;resizeLast=1;shadow=0;dashed=0;align=center;arcSize=4;whiteSpace=wrap;html=1;" parent="1" vertex="1">
          <mxGeometry x="1252.5" y="130" width="245" height="120" as="geometry" />
        </mxCell>
        <mxCell id="KrvEKSWYPK_Qh1LfVEug-21" value="&lt;div&gt;PhoneID&lt;span style=&quot;background-color: initial;&quot;&gt;(PK, INT, AUTO_INCREMENTED)&lt;/span&gt;&lt;br&gt;&lt;/div&gt;Phone(VARCHAR, UNIQUE, NOT NULL)&lt;br&gt;UserID(FK, INT, NOT NULL)&lt;div&gt;&lt;br&gt;&lt;/div&gt;" style="align=left;strokeColor=none;fillColor=none;spacingLeft=4;fontSize=12;verticalAlign=top;resizable=0;rotatable=0;part=1;html=1;" parent="KrvEKSWYPK_Qh1LfVEug-20" vertex="1">
          <mxGeometry y="50" width="245" height="70" as="geometry" />
        </mxCell>
        <mxCell id="KrvEKSWYPK_Qh1LfVEug-22" value="" style="edgeStyle=entityRelationEdgeStyle;fontSize=12;html=1;endArrow=ERoneToMany;startArrow=ERmandOne;rounded=0;exitX=1.003;exitY=0.18;exitDx=0;exitDy=0;exitPerimeter=0;entryX=0;entryY=0.5;entryDx=0;entryDy=0;" parent="1" source="vKVaL2DnMV1nz-EGHIRk-3" target="KrvEKSWYPK_Qh1LfVEug-20" edge="1">
          <mxGeometry width="100" height="100" relative="1" as="geometry">
            <mxPoint x="840" y="270" as="sourcePoint" />
            <mxPoint x="1020" y="180" as="targetPoint" />
          </mxGeometry>
        </mxCell>
        <mxCell id="KrvEKSWYPK_Qh1LfVEug-27" value="" style="edgeStyle=entityRelationEdgeStyle;fontSize=12;html=1;endArrow=ERoneToMany;startArrow=ERmandOne;rounded=0;exitX=0;exitY=0.25;exitDx=0;exitDy=0;entryX=0.994;entryY=0.203;entryDx=0;entryDy=0;entryPerimeter=0;" parent="1" source="49P6IO0RWQ1bCHdIIngb-7" target="49P6IO0RWQ1bCHdIIngb-5" edge="1">
          <mxGeometry width="100" height="100" relative="1" as="geometry">
            <mxPoint x="40" y="700" as="sourcePoint" />
            <mxPoint x="140" y="600" as="targetPoint" />
          </mxGeometry>
        </mxCell>
        <mxCell id="KrvEKSWYPK_Qh1LfVEug-30" value="Log" style="swimlane;childLayout=stackLayout;horizontal=1;startSize=50;horizontalStack=0;rounded=1;fontSize=14;fontStyle=0;strokeWidth=2;resizeParent=0;resizeLast=1;shadow=0;dashed=0;align=center;arcSize=4;whiteSpace=wrap;html=1;" parent="1" vertex="1">
          <mxGeometry x="510" y="280" width="230" height="120" as="geometry" />
        </mxCell>
        <mxCell id="KrvEKSWYPK_Qh1LfVEug-31" value="LogID(PK, INT, AUTO_INCREMENTED)&lt;br&gt;&lt;div&gt;UserID&lt;span style=&quot;background-color: initial;&quot;&gt;(FK, INT, NOT NULL)&lt;/span&gt;&lt;/div&gt;&lt;div&gt;Data(VARCHAR, NOT NUL)&lt;/div&gt;&lt;div&gt;&lt;span style=&quot;background-color: initial;&quot;&gt;Date(DATETIME, NOT NULL)&lt;/span&gt;&lt;/div&gt;" style="align=left;strokeColor=none;fillColor=none;spacingLeft=4;fontSize=12;verticalAlign=top;resizable=0;rotatable=0;part=1;html=1;" parent="KrvEKSWYPK_Qh1LfVEug-30" vertex="1">
          <mxGeometry y="50" width="230" height="70" as="geometry" />
        </mxCell>
        <mxCell id="KrvEKSWYPK_Qh1LfVEug-33" value="" style="edgeStyle=entityRelationEdgeStyle;fontSize=12;html=1;endArrow=ERoneToMany;startArrow=ERmandOne;rounded=0;exitX=0;exitY=0.25;exitDx=0;exitDy=0;entryX=1;entryY=0.5;entryDx=0;entryDy=0;" parent="1" source="vKVaL2DnMV1nz-EGHIRk-4" target="KrvEKSWYPK_Qh1LfVEug-31" edge="1">
          <mxGeometry width="100" height="100" relative="1" as="geometry">
            <mxPoint x="370" y="590" as="sourcePoint" />
            <mxPoint x="470" y="490" as="targetPoint" />
          </mxGeometry>
        </mxCell>
        <mxCell id="096eg8PjkhoR-g9txfct-10" value="FeedAnimal" style="swimlane;childLayout=stackLayout;horizontal=1;startSize=50;horizontalStack=0;rounded=1;fontSize=14;fontStyle=0;strokeWidth=2;resizeParent=0;resizeLast=1;shadow=0;dashed=0;align=center;arcSize=4;whiteSpace=wrap;html=1;" vertex="1" parent="1">
          <mxGeometry x="-520" y="550" width="160" height="120" as="geometry" />
        </mxCell>
        <mxCell id="096eg8PjkhoR-g9txfct-11" value="&lt;div&gt;FeedID&lt;/div&gt;AnimalID&lt;div&gt;&lt;br&gt;&lt;/div&gt;" style="align=left;strokeColor=none;fillColor=none;spacingLeft=4;fontSize=12;verticalAlign=top;resizable=0;rotatable=0;part=1;html=1;" vertex="1" parent="096eg8PjkhoR-g9txfct-10">
          <mxGeometry y="50" width="160" height="70" as="geometry" />
        </mxCell>
        <mxCell id="096eg8PjkhoR-g9txfct-12" value="" style="edgeStyle=entityRelationEdgeStyle;fontSize=12;html=1;endArrow=ERzeroToMany;startArrow=ERmandOne;rounded=0;exitX=1;exitY=0;exitDx=0;exitDy=0;entryX=0;entryY=0;entryDx=0;entryDy=0;" edge="1" parent="1" target="096eg8PjkhoR-g9txfct-11" source="49P6IO0RWQ1bCHdIIngb-12">
          <mxGeometry width="100" height="100" relative="1" as="geometry">
            <mxPoint x="-240" y="570" as="sourcePoint" />
            <mxPoint x="-140" y="500" as="targetPoint" />
          </mxGeometry>
        </mxCell>
        <mxCell id="096eg8PjkhoR-g9txfct-13" value="" style="edgeStyle=entityRelationEdgeStyle;fontSize=12;html=1;endArrow=ERzeroToMany;startArrow=ERmandOne;rounded=0;exitX=0;exitY=0.352;exitDx=0;exitDy=0;exitPerimeter=0;entryX=1;entryY=0.25;entryDx=0;entryDy=0;" edge="1" parent="1" target="096eg8PjkhoR-g9txfct-11" source="49P6IO0RWQ1bCHdIIngb-6">
          <mxGeometry width="100" height="100" relative="1" as="geometry">
            <mxPoint x="-360" y="899.24" as="sourcePoint" />
            <mxPoint x="-390" y="690" as="targetPoint" />
            <Array as="points">
              <mxPoint x="140" y="920" />
              <mxPoint x="-430" y="750" />
              <mxPoint x="-440" y="780" />
              <mxPoint x="-410" y="730" />
            </Array>
          </mxGeometry>
        </mxCell>
        <mxCell id="096eg8PjkhoR-g9txfct-16" value="FamilyCountry" style="swimlane;childLayout=stackLayout;horizontal=1;startSize=50;horizontalStack=0;rounded=1;fontSize=14;fontStyle=0;strokeWidth=2;resizeParent=0;resizeLast=1;shadow=0;dashed=0;align=center;arcSize=4;whiteSpace=wrap;html=1;" vertex="1" parent="1">
          <mxGeometry x="400" y="750" width="160" height="120" as="geometry" />
        </mxCell>
        <mxCell id="096eg8PjkhoR-g9txfct-17" value="&lt;div&gt;FamilyID&lt;/div&gt;CountryID&lt;div&gt;&lt;br&gt;&lt;/div&gt;" style="align=left;strokeColor=none;fillColor=none;spacingLeft=4;fontSize=12;verticalAlign=top;resizable=0;rotatable=0;part=1;html=1;" vertex="1" parent="096eg8PjkhoR-g9txfct-16">
          <mxGeometry y="50" width="160" height="70" as="geometry" />
        </mxCell>
        <mxCell id="096eg8PjkhoR-g9txfct-18" value="" style="edgeStyle=entityRelationEdgeStyle;fontSize=12;html=1;endArrow=ERzeroToMany;startArrow=ERmandOne;rounded=0;entryX=0;entryY=0;entryDx=0;entryDy=0;" edge="1" parent="1" target="096eg8PjkhoR-g9txfct-17" source="49P6IO0RWQ1bCHdIIngb-14">
          <mxGeometry width="100" height="100" relative="1" as="geometry">
            <mxPoint x="290" y="940" as="sourcePoint" />
            <mxPoint x="400" y="750" as="targetPoint" />
          </mxGeometry>
        </mxCell>
        <mxCell id="096eg8PjkhoR-g9txfct-19" value="" style="edgeStyle=entityRelationEdgeStyle;fontSize=12;html=1;endArrow=ERzeroToMany;startArrow=ERmandOne;rounded=0;entryX=1;entryY=0;entryDx=0;entryDy=0;exitX=0;exitY=0.5;exitDx=0;exitDy=0;" edge="1" parent="1" target="096eg8PjkhoR-g9txfct-17" source="49P6IO0RWQ1bCHdIIngb-10">
          <mxGeometry width="100" height="100" relative="1" as="geometry">
            <mxPoint x="600" y="925" as="sourcePoint" />
            <mxPoint x="600" y="820" as="targetPoint" />
            <Array as="points">
              <mxPoint x="750" y="950" />
            </Array>
          </mxGeometry>
        </mxCell>
        <mxCell id="096eg8PjkhoR-g9txfct-20" value="EmployeeJobTitle" style="swimlane;childLayout=stackLayout;horizontal=1;startSize=50;horizontalStack=0;rounded=1;fontSize=14;fontStyle=0;strokeWidth=2;resizeParent=0;resizeLast=1;shadow=0;dashed=0;align=center;arcSize=4;whiteSpace=wrap;html=1;" vertex="1" parent="1">
          <mxGeometry x="920" y="590" width="160" height="120" as="geometry" />
        </mxCell>
        <mxCell id="096eg8PjkhoR-g9txfct-21" value="&lt;div&gt;EmployeeID&lt;/div&gt;&lt;div&gt;&lt;span style=&quot;background-color: initial;&quot;&gt;JobTitleID&lt;/span&gt;&lt;br&gt;&lt;/div&gt;" style="align=left;strokeColor=none;fillColor=none;spacingLeft=4;fontSize=12;verticalAlign=top;resizable=0;rotatable=0;part=1;html=1;" vertex="1" parent="096eg8PjkhoR-g9txfct-20">
          <mxGeometry y="50" width="160" height="70" as="geometry" />
        </mxCell>
        <mxCell id="096eg8PjkhoR-g9txfct-22" value="" style="edgeStyle=entityRelationEdgeStyle;fontSize=12;html=1;endArrow=ERzeroToMany;startArrow=ERmandOne;rounded=0;entryX=0;entryY=0;entryDx=0;entryDy=0;exitX=1.012;exitY=0.393;exitDx=0;exitDy=0;exitPerimeter=0;" edge="1" parent="1" target="096eg8PjkhoR-g9txfct-21" source="49P6IO0RWQ1bCHdIIngb-4">
          <mxGeometry width="100" height="100" relative="1" as="geometry">
            <mxPoint x="540" y="630" as="sourcePoint" />
            <mxPoint x="560" y="625" as="targetPoint" />
          </mxGeometry>
        </mxCell>
        <mxCell id="096eg8PjkhoR-g9txfct-23" value="" style="edgeStyle=entityRelationEdgeStyle;fontSize=12;html=1;endArrow=ERzeroToMany;startArrow=ERmandOne;rounded=0;entryX=1;entryY=0;entryDx=0;entryDy=0;exitX=-0.008;exitY=0.402;exitDx=0;exitDy=0;exitPerimeter=0;" edge="1" parent="1" target="096eg8PjkhoR-g9txfct-21" source="49P6IO0RWQ1bCHdIIngb-19">
          <mxGeometry width="100" height="100" relative="1" as="geometry">
            <mxPoint x="950" y="720" as="sourcePoint" />
            <mxPoint x="760" y="695" as="targetPoint" />
            <Array as="points">
              <mxPoint x="910" y="825" />
            </Array>
          </mxGeometry>
        </mxCell>
        <mxCell id="096eg8PjkhoR-g9txfct-24" value="FamilyEmployee" style="swimlane;childLayout=stackLayout;horizontal=1;startSize=50;horizontalStack=0;rounded=1;fontSize=14;fontStyle=0;strokeWidth=2;resizeParent=0;resizeLast=1;shadow=0;dashed=0;align=center;arcSize=4;whiteSpace=wrap;html=1;" vertex="1" parent="1">
          <mxGeometry x="330" y="570" width="160" height="120" as="geometry" />
        </mxCell>
        <mxCell id="096eg8PjkhoR-g9txfct-25" value="&lt;div&gt;FamilyID&lt;/div&gt;EmployeeID&lt;div&gt;&lt;br&gt;&lt;/div&gt;" style="align=left;strokeColor=none;fillColor=none;spacingLeft=4;fontSize=12;verticalAlign=top;resizable=0;rotatable=0;part=1;html=1;" vertex="1" parent="096eg8PjkhoR-g9txfct-24">
          <mxGeometry y="50" width="160" height="70" as="geometry" />
        </mxCell>
        <mxCell id="096eg8PjkhoR-g9txfct-26" value="" style="edgeStyle=entityRelationEdgeStyle;fontSize=12;html=1;endArrow=ERzeroToMany;startArrow=ERmandOne;rounded=0;entryX=0;entryY=0;entryDx=0;entryDy=0;exitX=1;exitY=0.25;exitDx=0;exitDy=0;" edge="1" parent="1" target="096eg8PjkhoR-g9txfct-25" source="49P6IO0RWQ1bCHdIIngb-13">
          <mxGeometry width="100" height="100" relative="1" as="geometry">
            <mxPoint x="260" y="625" as="sourcePoint" />
            <mxPoint x="350" y="620" as="targetPoint" />
          </mxGeometry>
        </mxCell>
        <mxCell id="096eg8PjkhoR-g9txfct-27" value="" style="edgeStyle=entityRelationEdgeStyle;fontSize=12;html=1;endArrow=ERzeroToMany;startArrow=ERmandOne;rounded=0;entryX=1;entryY=0;entryDx=0;entryDy=0;exitX=-0.022;exitY=0.34;exitDx=0;exitDy=0;exitPerimeter=0;" edge="1" parent="1" target="096eg8PjkhoR-g9txfct-25" source="49P6IO0RWQ1bCHdIIngb-4">
          <mxGeometry width="100" height="100" relative="1" as="geometry">
            <mxPoint x="590" y="715" as="sourcePoint" />
            <mxPoint x="550" y="690" as="targetPoint" />
            <Array as="points">
              <mxPoint x="700" y="820" />
            </Array>
          </mxGeometry>
        </mxCell>
        <mxCell id="096eg8PjkhoR-g9txfct-32" value="" style="edgeStyle=entityRelationEdgeStyle;fontSize=12;html=1;endArrow=ERzeroToMany;startArrow=ERmandOne;rounded=0;exitX=1;exitY=0.25;exitDx=0;exitDy=0;entryX=0;entryY=0.25;entryDx=0;entryDy=0;" edge="1" parent="1" source="49P6IO0RWQ1bCHdIIngb-22" target="49P6IO0RWQ1bCHdIIngb-23">
          <mxGeometry width="100" height="100" relative="1" as="geometry">
            <mxPoint x="440" y="140" as="sourcePoint" />
            <mxPoint x="520" y="130" as="targetPoint" />
            <Array as="points">
              <mxPoint x="490" y="170" />
            </Array>
          </mxGeometry>
        </mxCell>
        <mxCell id="096eg8PjkhoR-g9txfct-33" value="" style="edgeStyle=entityRelationEdgeStyle;fontSize=12;html=1;endArrow=ERzeroToMany;startArrow=ERmandOne;rounded=0;exitX=0;exitY=0.25;exitDx=0;exitDy=0;entryX=1;entryY=0;entryDx=0;entryDy=0;" edge="1" parent="1" source="vKVaL2DnMV1nz-EGHIRk-3" target="49P6IO0RWQ1bCHdIIngb-24">
          <mxGeometry width="100" height="100" relative="1" as="geometry">
            <mxPoint x="976.64" y="258.9399999999999" as="sourcePoint" />
            <mxPoint x="830.0000000000001" y="121.06000000000003" as="targetPoint" />
            <Array as="points">
              <mxPoint x="901.64" y="173.34" />
            </Array>
          </mxGeometry>
        </mxCell>
      </root>
    </mxGraphModel>
  </diagram>
</mxfile>
